# xmcd
#
# Track frame offsets:
#	150
#	22507
#	40235
#	61562
#	83657
#	104947
#	125767
#	149400
#	170595
#	193292
#	229080
#
# Disc length: 4440 seconds
#
# Revision: 1
# Processed by: cddbd v1.5.1PL0 Copyright (c) Steve Scherf et al.
# Submitted via: audiograbber 1.81.02
#
DISCID=9411560b
DTITLE=ザ・バックホーン - 心臓オーケストラ
DYEAR=2002
DGENRE=Rock
TTITLE0=ワタボウシ
TTITLE1=ゲーム
TTITLE2=涙がこぼれたら
TTITLE3=夏草の揺れる丘
TTITLE4=マテリア
TTITLE5=ディナー
TTITLE6=夕暮れ
TTITLE7=野生の太陽
TTITLE8=世界樹の下で
TTITLE9=ぬくもり歌
TTITLE10=データトラック
EXTD=
EXTT0=
EXTT1=
EXTT2=
EXTT3=
EXTT4=
EXTT5=
EXTT6=
EXTT7=
EXTT8=
EXTT9=
EXTT10=
PLAYORDER=
